<svg width="159" height="73" viewBox="0 0 159 73" fill="none" xmlns="http://www.w3.org/2000/svg">
<path d="M0.988581 32V10.1818H8.82949V32H0.988581ZM4.90904 7.90909C3.84843 7.90909 2.93934 7.55871 2.18176 6.85795C1.42419 6.1572 1.0454 5.31439 1.0454 4.32955C1.0454 3.3447 1.42419 2.50189 2.18176 1.80114C2.93934 1.10038 3.84843 0.75 4.90904 0.75C5.97911 0.75 6.8882 1.10038 7.63631 1.80114C8.39388 2.50189 8.77267 3.3447 8.77267 4.32955C8.77267 5.31439 8.39388 6.1572 7.63631 6.85795C6.8882 7.55871 5.97911 7.90909 4.90904 7.90909Z" fill="white"/>
<path d="M19.5222 32.2841C17.9692 32.2841 16.5393 31.8769 15.2325 31.0625C13.9351 30.2481 12.8935 29.0123 12.1075 27.3551C11.331 25.6979 10.9427 23.6098 10.9427 21.0909C10.9427 18.4583 11.3499 16.3182 12.1643 14.6705C12.9882 13.0227 14.0488 11.8153 15.3461 11.0483C16.6529 10.2812 18.026 9.89773 19.4654 9.89773C20.545 9.89773 21.4919 10.0871 22.3063 10.4659C23.1207 10.8352 23.8025 11.3324 24.3518 11.9574C24.901 12.5729 25.3177 13.25 25.6018 13.9886H25.7154V2.90909H33.5563V32H25.7722V28.4205H25.6018C25.2988 29.1591 24.8632 29.822 24.295 30.4091C23.7363 30.9867 23.0544 31.446 22.2495 31.7869C21.4541 32.1184 20.545 32.2841 19.5222 32.2841ZM22.42 26.2614C23.1397 26.2614 23.7552 26.053 24.2666 25.6364C24.7874 25.2102 25.1851 24.6136 25.4597 23.8466C25.7438 23.0701 25.8859 22.1515 25.8859 21.0909C25.8859 20.0114 25.7438 19.0881 25.4597 18.321C25.1851 17.5445 24.7874 16.9527 24.2666 16.5455C23.7552 16.1288 23.1397 15.9205 22.42 15.9205C21.7003 15.9205 21.0847 16.1288 20.5734 16.5455C20.0715 16.9527 19.6832 17.5445 19.4086 18.321C19.1435 19.0881 19.0109 20.0114 19.0109 21.0909C19.0109 22.1705 19.1435 23.0985 19.4086 23.875C19.6832 24.642 20.0715 25.2339 20.5734 25.6506C21.0847 26.0578 21.7003 26.2614 22.42 26.2614Z" fill="white"/>
<path d="M36.2058 32V10.1818H44.0467V32H36.2058ZM40.1262 7.90909C39.0656 7.90909 38.1565 7.55871 37.3989 6.85795C36.6414 6.1572 36.2626 5.31439 36.2626 4.32955C36.2626 3.3447 36.6414 2.50189 37.3989 1.80114C38.1565 1.10038 39.0656 0.75 40.1262 0.75C41.1963 0.75 42.1054 1.10038 42.8535 1.80114C43.6111 2.50189 43.9899 3.3447 43.9899 4.32955C43.9899 5.31439 43.6111 6.1572 42.8535 6.85795C42.1054 7.55871 41.1963 7.90909 40.1262 7.90909Z" fill="white"/>
<path d="M57.3531 32.3977C54.9856 32.3977 52.9591 31.929 51.2735 30.9915C49.5879 30.0445 48.2953 28.7282 47.3957 27.0426C46.4961 25.3475 46.0463 23.3826 46.0463 21.1477C46.0463 18.9129 46.4961 16.9527 47.3957 15.267C48.2953 13.572 49.5879 12.2557 51.2735 11.3182C52.9591 10.3712 54.9856 9.89773 57.3531 9.89773C59.7205 9.89773 61.747 10.3712 63.4326 11.3182C65.1182 12.2557 66.4108 13.572 67.3105 15.267C68.2101 16.9527 68.6599 18.9129 68.6599 21.1477C68.6599 23.3826 68.2101 25.3475 67.3105 27.0426C66.4108 28.7282 65.1182 30.0445 63.4326 30.9915C61.747 31.929 59.7205 32.3977 57.3531 32.3977ZM57.4099 26.6023C58.0728 26.6023 58.6457 26.3797 59.1286 25.9347C59.6116 25.4896 59.9856 24.8551 60.2508 24.0312C60.5159 23.2074 60.6485 22.2273 60.6485 21.0909C60.6485 19.9451 60.5159 18.965 60.2508 18.1506C59.9856 17.3267 59.6116 16.6922 59.1286 16.2472C58.6457 15.8021 58.0728 15.5795 57.4099 15.5795C56.7091 15.5795 56.1078 15.8021 55.6059 16.2472C55.104 16.6922 54.7205 17.3267 54.4553 18.1506C54.1902 18.965 54.0576 19.9451 54.0576 21.0909C54.0576 22.2273 54.1902 23.2074 54.4553 24.0312C54.7205 24.8551 55.104 25.4896 55.6059 25.9347C56.1078 26.3797 56.7091 26.6023 57.4099 26.6023Z" fill="white"/>
<path d="M83.6531 10.1818V15.8636H69.2781V10.1818H83.6531ZM72.0622 4.95455H79.9031V24.983C79.9031 25.286 79.9552 25.5417 80.0593 25.75C80.1635 25.9489 80.3245 26.1004 80.5423 26.2045C80.7601 26.2992 81.0394 26.3466 81.3803 26.3466C81.6171 26.3466 81.8917 26.3182 82.2042 26.2614C82.5262 26.2045 82.7629 26.1572 82.9144 26.1193L84.0508 31.6307C83.7004 31.7348 83.1985 31.8627 82.5451 32.0142C81.9012 32.1657 81.1341 32.2652 80.244 32.3125C78.4447 32.4072 76.9343 32.2225 75.7127 31.7585C74.4911 31.285 73.5726 30.5417 72.957 29.5284C72.3415 28.5152 72.0432 27.2462 72.0622 25.7216V4.95455Z" fill="white"/>
<path d="M15.0795 72.1818V60.4205H14.9659C14.6628 61.1591 14.2272 61.822 13.659 62.4091C13.1003 62.9867 12.4185 63.446 11.6136 63.7869C10.8181 64.1184 9.90904 64.2841 8.88631 64.2841C7.33328 64.2841 5.90335 63.8769 4.59654 63.0625C3.29919 62.2481 2.25752 61.0123 1.47154 59.3551C0.69502 57.6979 0.306763 55.6098 0.306763 53.0909C0.306763 50.4583 0.71396 48.3182 1.52835 46.6705C2.35222 45.0227 3.41282 43.8153 4.71017 43.0483C6.01699 42.2812 7.3901 41.8977 8.82949 41.8977C9.90904 41.8977 10.856 42.0871 11.6704 42.4659C12.4848 42.8352 13.1666 43.3324 13.7159 43.9574C14.2651 44.5729 14.6818 45.25 14.9659 45.9886H15.1363V42.1818H22.9204V72.1818H15.0795ZM11.784 58.2614C12.5037 58.2614 13.1193 58.053 13.6306 57.6364C14.1515 57.2102 14.5492 56.6136 14.8238 55.8466C15.1079 55.0701 15.2499 54.1515 15.2499 53.0909C15.2499 52.0114 15.1079 51.0881 14.8238 50.321C14.5492 49.5445 14.1515 48.9526 13.6306 48.5455C13.1193 48.1288 12.5037 47.9205 11.784 47.9205C11.0643 47.9205 10.4488 48.1288 9.93744 48.5455C9.43555 48.9526 9.04729 49.5445 8.77267 50.321C8.50752 51.0881 8.37494 52.0114 8.37494 53.0909C8.37494 54.1705 8.50752 55.0985 8.77267 55.875C9.04729 56.642 9.43555 57.2339 9.93744 57.6506C10.4488 58.0578 11.0643 58.2614 11.784 58.2614Z" fill="white"/>
<path d="M39.8347 54.4545V42.1818H47.6757V64H40.2325V59.8523H40.0052C39.5317 61.2443 38.7031 62.3333 37.5194 63.1193C36.3357 63.8958 34.9294 64.2841 33.3007 64.2841C31.776 64.2841 30.4408 63.9337 29.295 63.233C28.1586 62.5322 27.2732 61.5663 26.6387 60.3352C26.0137 59.1042 25.6965 57.6932 25.687 56.1023V42.1818H33.5279V54.4545C33.5374 55.5341 33.812 56.3816 34.3518 56.9972C34.901 57.6127 35.6681 57.9205 36.6529 57.9205C37.3063 57.9205 37.8698 57.7831 38.3433 57.5085C38.8262 57.2244 39.1955 56.8267 39.4512 56.3153C39.7164 55.7945 39.8442 55.1742 39.8347 54.4545Z" fill="white"/>
<path d="M56.5431 64.3409C55.1511 64.3409 53.92 64.1136 52.8499 63.6591C51.7893 63.1951 50.956 62.4943 50.3499 61.5568C49.7439 60.6193 49.4409 59.4261 49.4409 57.9773C49.4409 56.7841 49.6445 55.7661 50.0516 54.9233C50.4588 54.071 51.027 53.375 51.7562 52.8352C52.4854 52.2955 53.3329 51.8835 54.2988 51.5994C55.2742 51.3153 56.3253 51.1307 57.4522 51.0455C58.6738 50.9508 59.6539 50.8371 60.3926 50.7045C61.1407 50.5625 61.6804 50.3684 62.0119 50.1222C62.3433 49.8665 62.509 49.5303 62.509 49.1136V49.0568C62.509 48.4886 62.2912 48.053 61.8556 47.75C61.42 47.447 60.8613 47.2955 60.1795 47.2955C59.4314 47.2955 58.8206 47.4612 58.3471 47.7926C57.8831 48.1146 57.6037 48.6117 57.509 49.2841H50.2931C50.3878 47.9583 50.8092 46.7367 51.5573 45.6193C52.3149 44.4924 53.4181 43.5928 54.867 42.9205C56.3159 42.2386 58.1246 41.8977 60.2931 41.8977C61.8556 41.8977 63.2571 42.0824 64.4977 42.4517C65.7382 42.8116 66.7941 43.3182 67.6653 43.9716C68.5365 44.6155 69.1994 45.3731 69.6539 46.2443C70.1179 47.1061 70.3499 48.0436 70.3499 49.0568V64H63.0204V60.9318H62.8499C62.4143 61.7462 61.884 62.4044 61.259 62.9062C60.6435 63.4081 59.938 63.7727 59.1426 64C58.3566 64.2273 57.4901 64.3409 56.5431 64.3409ZM59.0999 59.3977C59.6965 59.3977 60.2552 59.2746 60.7761 59.0284C61.3064 58.7822 61.7373 58.4271 62.0687 57.9631C62.4001 57.4991 62.5659 56.9356 62.5659 56.2727V54.4545C62.3575 54.5398 62.135 54.6203 61.8982 54.696C61.671 54.7718 61.4248 54.8428 61.1596 54.9091C60.9039 54.9754 60.6293 55.0369 60.3357 55.0938C60.0516 55.1506 59.7534 55.2027 59.4409 55.25C58.8348 55.3447 58.3376 55.5009 57.9494 55.7188C57.5706 55.9271 57.2865 56.1875 57.0971 56.5C56.9172 56.803 56.8272 57.1439 56.8272 57.5227C56.8272 58.1288 57.0403 58.5928 57.4664 58.9148C57.8926 59.2367 58.4371 59.3977 59.0999 59.3977Z" fill="white"/>
<path d="M85.9078 42.1818V47.8636H71.5328V42.1818H85.9078ZM74.3168 36.9545H82.1578V56.983C82.1578 57.286 82.2098 57.5417 82.314 57.75C82.4182 57.9489 82.5792 58.1004 82.797 58.2045C83.0148 58.2992 83.2941 58.3466 83.635 58.3466C83.8718 58.3466 84.1464 58.3182 84.4589 58.2614C84.7809 58.2045 85.0176 58.1572 85.1691 58.1193L86.3055 63.6307C85.9551 63.7348 85.4532 63.8627 84.7998 64.0142C84.1559 64.1657 83.3888 64.2652 82.4987 64.3125C80.6994 64.4072 79.189 64.2225 77.9674 63.7585C76.7458 63.285 75.8273 62.5417 75.2117 61.5284C74.5962 60.5152 74.2979 59.2462 74.3168 57.7216V36.9545Z" fill="white"/>
<path d="M87.9073 64V42.1818H95.521V46.3295H95.7482C96.146 44.7955 96.7757 43.6733 97.6374 42.9631C98.5087 42.2528 99.5266 41.8977 100.691 41.8977C101.032 41.8977 101.369 41.9261 101.7 41.983C102.041 42.0303 102.368 42.1013 102.68 42.196V48.8864C102.292 48.7538 101.814 48.6544 101.245 48.5881C100.677 48.5218 100.19 48.4886 99.7823 48.4886C99.0153 48.4886 98.324 48.6638 97.7085 49.0142C97.1024 49.3551 96.6242 49.8381 96.2738 50.4631C95.9234 51.0786 95.7482 51.803 95.7482 52.6364V64H87.9073Z" fill="white"/>
<path d="M109.115 64.3409C107.723 64.3409 106.492 64.1136 105.422 63.6591C104.361 63.1951 103.528 62.4943 102.922 61.5568C102.316 60.6193 102.013 59.4261 102.013 57.9773C102.013 56.7841 102.216 55.7661 102.624 54.9233C103.031 54.071 103.599 53.375 104.328 52.8352C105.057 52.2955 105.905 51.8835 106.871 51.5994C107.846 51.3153 108.897 51.1307 110.024 51.0455C111.246 50.9508 112.226 50.8371 112.964 50.7045C113.713 50.5625 114.252 50.3684 114.584 50.1222C114.915 49.8665 115.081 49.5303 115.081 49.1136V49.0568C115.081 48.4886 114.863 48.053 114.428 47.75C113.992 47.447 113.433 47.2955 112.751 47.2955C112.003 47.2955 111.392 47.4612 110.919 47.7926C110.455 48.1146 110.176 48.6117 110.081 49.2841H102.865C102.96 47.9583 103.381 46.7367 104.129 45.6193C104.887 44.4924 105.99 43.5928 107.439 42.9205C108.888 42.2386 110.696 41.8977 112.865 41.8977C114.428 41.8977 115.829 42.0824 117.07 42.4517C118.31 42.8116 119.366 43.3182 120.237 43.9716C121.108 44.6155 121.771 45.3731 122.226 46.2443C122.69 47.1061 122.922 48.0436 122.922 49.0568V64H115.592V60.9318H115.422C114.986 61.7462 114.456 62.4044 113.831 62.9062C113.215 63.4081 112.51 63.7727 111.714 64C110.928 64.2273 110.062 64.3409 109.115 64.3409ZM111.672 59.3977C112.268 59.3977 112.827 59.2746 113.348 59.0284C113.878 58.7822 114.309 58.4271 114.641 57.9631C114.972 57.4991 115.138 56.9356 115.138 56.2727V54.4545C114.929 54.5398 114.707 54.6203 114.47 54.696C114.243 54.7718 113.997 54.8428 113.731 54.9091C113.476 54.9754 113.201 55.0369 112.908 55.0938C112.624 55.1506 112.325 55.2027 112.013 55.25C111.407 55.3447 110.91 55.5009 110.521 55.7188C110.142 55.9271 109.858 56.1875 109.669 56.5C109.489 56.803 109.399 57.1439 109.399 57.5227C109.399 58.1288 109.612 58.5928 110.038 58.9148C110.464 59.2367 111.009 59.3977 111.672 59.3977Z" fill="white"/>
<path d="M125.468 64V42.1818H133.309V64H125.468ZM129.389 39.9091C128.328 39.9091 127.419 39.5587 126.661 38.858C125.904 38.1572 125.525 37.3144 125.525 36.3295C125.525 35.3447 125.904 34.5019 126.661 33.8011C127.419 33.1004 128.328 32.75 129.389 32.75C130.459 32.75 131.368 33.1004 132.116 33.8011C132.874 34.5019 133.252 35.3447 133.252 36.3295C133.252 37.3144 132.874 38.1572 132.116 38.858C131.368 39.5587 130.459 39.9091 129.389 39.9091Z" fill="white"/>
<path d="M143.945 51.7273V64H136.104V42.1818H143.547V46.3295H143.775C144.248 44.947 145.081 43.8627 146.275 43.0767C147.477 42.2907 148.879 41.8977 150.479 41.8977C152.023 41.8977 153.363 42.2528 154.499 42.9631C155.645 43.6638 156.53 44.6297 157.155 45.8608C157.79 47.0919 158.102 48.4981 158.093 50.0795V64H150.252V51.7273C150.261 50.6477 149.987 49.8002 149.428 49.1847C148.879 48.5691 148.112 48.2614 147.127 48.2614C146.483 48.2614 145.92 48.4034 145.437 48.6875C144.963 48.9621 144.599 49.3598 144.343 49.8807C144.087 50.392 143.955 51.0076 143.945 51.7273Z" fill="white"/>
</svg>
